<?xml version="1.0" encoding="utf-8"?>
<!-- Generator: Adobe Illustrator 18.1.0, SVG Export Plug-In . SVG Version: 6.00 Build 0)  -->
<!DOCTYPE svg PUBLIC "-//W3C//DTD SVG 1.1//EN" "http://www.w3.org/Graphics/SVG/1.1/DTD/svg11.dtd">
<svg version="1.1" id="Layer_1" xmlns="http://www.w3.org/2000/svg" xmlns:xlink="http://www.w3.org/1999/xlink" x="0px" y="0px"
	 viewBox="0 0 640 480" enable-background="new 0 0 640 480" xml:space="preserve">
<g id="Capa_1">
	<path fill="#FCFCFC" d="M496.5,335c0.7,5.7-1,10.6-5.2,14.8l-49.3,49c-2.2,2.5-5.2,4.5-8.7,6.3c-3.6,1.8-7.1,2.8-10.5,3.3
		c-0.2,0-1,0.1-2.2,0.2c-1.2,0.1-2.8,0.2-4.8,0.2c-4.7,0-12.3-0.8-22.8-2.4s-23.4-5.6-38.5-11.9c-15.2-6.3-32.5-15.8-51.8-28.4
		c-19.3-12.6-39.8-29.9-61.6-51.9c-17.3-17.1-31.6-33.4-43-49c-11.4-15.6-20.5-30-27.5-43.2c-6.9-13.2-12.1-25.2-15.6-36
		c-3.5-10.8-5.8-20-7-27.8c-1.2-7.8-1.8-13.9-1.5-18.4c0.2-4.4,0.4-6.9,0.4-7.4c0.5-3.5,1.6-7,3.3-10.5c1.7-3.6,3.8-6.5,6.3-8.7
		l49.3-49.3c3.5-3.5,7.4-5.2,11.9-5.2c3.2,0,6.1,0.9,8.5,2.8c2.5,1.9,4.5,4.1,6.3,6.8l39.7,75.3c2.2,3.9,2.8,8.3,1.9,13
		c-1,4.7-3.1,8.7-6.3,11.9l-18.2,18.2c-0.5,0.5-0.9,1.3-1.3,2.4c-0.4,1.2-0.5,2.1-0.5,2.8c1,5.2,3.2,11.2,6.7,17.8
		c3,5.9,7.5,13.2,13.7,21.7c6.2,8.5,15,18.4,26.4,29.5c11.2,11.4,21,20.2,29.7,26.5c8.7,6.3,15.9,11,21.7,13.9s10.2,4.8,13.3,5.4
		l4.6,0.9c0.5,0,1.3-0.2,2.4-0.5c1.2-0.4,1.9-0.8,2.4-1.3l21.2-21.5c4.4-3.9,9.6-5.9,15.6-5.9c4.2,0,7.5,0.7,10,2.2h0.4l71.5,42.2
		C492.5,325.9,495.6,330,496.5,335z"/>
</g>
<rect id="_x3C_Slice_x3E_" x="146" y="58" fill="none" width="351" height="351"/>
<g id="Layer_2">
</g>
</svg>
